<?xml version="1.0" encoding="UTF-8"?>
<svg id="Calque_1" xmlns="http://www.w3.org/2000/svg" version="1.1" viewBox="0 0 340.4 99.8">
  <!-- Generator: Adobe Illustrator 29.8.2, SVG Export Plug-In . SVG Version: 2.1.1 Build 3)  -->
  <defs>
    <style>
      .st0 {
        fill: #ff9b00;
      }

      .st1 {
        isolation: isolate;
      }

      .st2 {
        fill: #fff;
      }
    </style>
  </defs>
  <g class="st1">
    <g class="st1">
      <path class="st2" d="M128,70.4v-32.5h6.2v32.5h-6.2ZM133.3,70.4v-5.8h6.6c1.7,0,3.2-.3,4.5-.8,1.3-.5,2.4-1.2,3.3-2.2.9-.9,1.6-2,2.1-3.3.5-1.3.7-2.7.7-4.2s-.2-3.1-.7-4.3c-.5-1.3-1.2-2.4-2.1-3.3s-2-1.6-3.3-2.1c-1.3-.5-2.8-.7-4.5-.7h-6.6v-5.8h6.2c2.9,0,5.4.4,7.6,1.3,2.2.9,4,2,5.4,3.5,1.4,1.5,2.5,3.2,3.2,5.1.7,1.9,1.1,3.8,1.1,5.9v1c0,1.9-.4,3.8-1.1,5.7-.7,1.9-1.8,3.6-3.2,5.1-1.4,1.5-3.2,2.7-5.4,3.7-2.2.9-4.7,1.4-7.6,1.4h-6.2Z"/>
    </g>
    <g class="st1">
      <path class="st2" d="M161.4,70.2l11-32.1h10.2l11.3,32.1h-6.4l-9.5-27.9,2.2,1h-5.5l2.3-1-9.2,27.9h-6.2ZM169,61.7l2-5.3h13l1.9,5.3h-16.9Z"/>
      <path class="st2" d="M201.6,70.2v-32.1h10.3l13.5,26.9h1.5l-.9.8v-27.7h5.9v32.1h-10.3l-13.5-26.9h-1.5l.9-.8v27.7h-5.8Z"/>
    </g>
    <g class="st1">
      <path class="st2" d="M240.1,70.2l11-32.1h10.2l11.3,32.1h-6.4l-9.5-27.9,2.2,1h-5.5l2.3-1-9.2,27.9h-6.2ZM247.8,61.7l2-5.3h13l1.9,5.3h-16.9Z"/>
    </g>
    <g class="st1">
      <path class="st2" d="M283.9,57.9l-9.7-19.8h6.4l7.4,15.5-1.4-.4h4.2l-1.5.4,6.7-15.5h6.1l-8.9,19.8h-9.3ZM285.5,70.2v-13.2h6.1v13.2h-6.1Z"/>
    </g>
    <g class="st1">
      <path class="st2" d="M303.9,70.2l11-32.1h10.2l11.3,32.1h-6.4l-9.5-27.9,2.2,1h-5.5l2.3-1-9.2,27.9h-6.2ZM311.5,61.7l2-5.3h13l1.9,5.3h-16.9Z"/>
    </g>
  </g>
  <rect id="back" class="st2" y="0" width="99.8" height="99.8" rx="23.8" ry="23.8"/>
  <path class="st0" d="M52.7,54.2c0-1.6-.1-3.2-.4-4.8-1.2-6.9-5.1-12.9-10.8-17-5.5-3.9-13.6-5.4-20.3-4.5v5.1h4.8c11.5,0,21.2,8.9,21.7,20.3.5,12-9.2,22-21.1,22h-5.4v1.1c0,1.8,1.5,3.2,3.2,3.2h8.7c11.4-3.1,19.5-13.5,19.5-25.5h0Z"/>
  <path class="st0" d="M43.3,54.1c0-9.3-7.5-16.8-16.8-16.8h-5.4v4.5h5c6.6,0,12,5.4,12,12s-5.4,12-12,12h-5v5.2h5.4c9.3,0,16.8-7.5,16.8-16.8Z"/>
  <path class="st0" d="M62.2,54.2c0-2.2-.2-4.4-.6-6.6-1.7-9.4-6.9-17.6-14.7-23.1-2.4-1.7-4.9-3.1-7.6-4.1-.2,0-.4-.2-.6-.4h-14.4c-1.8,0-3.2,1.5-3.2,3.2v.2c7.6-.8,16.6.9,22.8,5.3,6.7,4.7,11.1,11.7,12.6,19.7.3,1.8.5,3.7.5,5.6,0,10.5-5.4,19.9-13.6,25.4h7.6c.3-.1.8-.3,1.1-.5,6.4-6.6,10.2-15.6,10.2-24.9h0Z"/>
  <path class="st0" d="M33.8,53.8c0-4.2-3.4-7.7-7.7-7.7h-5v5.7h5.5c1.2,0,2.2,1,2.2,2.2s-1,2.2-2.2,2.2h-5.5v5.4h5c4.2,0,7.7-3.4,7.7-7.7Z"/>
  <path class="st0" d="M80.6,49.9c0-10.8-5.7-20.2-14.3-25.4,4.5,6.1,7.6,13.1,8.9,20.8h0c.5,3,.8,6,.8,9.1,0,5-.8,9.8-2.2,14.5,4.2-5.1,6.8-11.7,6.8-18.9h0Z"/>
  <path class="st0" d="M71.1,46h0c-1.8-9.7-6.5-18.5-13.6-25.1-2.1-.5-4.3-.7-6.5-.7h-2.9c.5.3,1,.6,1.4,1,8.7,6.2,14.6,15.3,16.5,25.8.4,2.4.7,4.9.6,7.3,0,7-1.9,14-5.4,20-.9,1.6-1.9,3.1-3,4.5,3.1-.8,5.9-2,8.5-3.6,3.3-6.4,5.1-13.5,5.2-20.9,0-2.8-.2-5.6-.7-8.3h0Z"/>
</svg>